<svg xmlns="http://www.w3.org/2000/svg" xmlns:xlink="http://www.w3.org/1999/xlink" viewBox="0,0,256,256" width="96px" height="96px"><defs><linearGradient x1="11.15" y1="11.15" x2="35.041" y2="35.041" gradientUnits="userSpaceOnUse" id="color-1"><stop offset="0" stop-color="#262626" stop-opacity="0"></stop><stop offset="1" stop-color="#262626" stop-opacity="0.8"></stop></linearGradient><linearGradient x1="27.506" y1="3.506" x2="42.342" y2="18.342" gradientUnits="userSpaceOnUse" id="color-2"><stop offset="0" stop-color="#262626" stop-opacity="0"></stop><stop offset="1" stop-color="#262626" stop-opacity="0.8"></stop></linearGradient><linearGradient x1="3.306" y1="3.644" x2="55.453" y2="55.791" gradientUnits="userSpaceOnUse" id="color-3"><stop offset="0" stop-color="#262626" stop-opacity="0"></stop><stop offset="1" stop-color="#262626" stop-opacity="0.8"></stop></linearGradient></defs><g transform="translate(-24.32,-24.32) scale(1.19,1.19)"><g fill="none" fill-rule="nonzero" stroke="none" stroke-width="1" stroke-linecap="butt" stroke-linejoin="miter" stroke-miterlimit="10" stroke-dasharray="" stroke-dashoffset="0" font-family="none" font-weight="none" font-size="none" text-anchor="none" style="mix-blend-mode: normal"><g transform="scale(5.33333,5.33333)"><circle cx="24" cy="24" r="9" fill="url(#color-1)"></circle><circle cx="36" cy="12" r="5" fill="url(#color-2)"></circle><path d="M40.828,13.234c-0.544,2.129 -2.441,3.71 -4.728,3.756c1.2,2.064 1.9,4.455 1.9,7.01c0,7.72 -6.28,14 -14,14c-7.72,0 -14,-6.28 -14,-14c0,-7.72 6.28,-14 14,-14c2.555,0 4.946,0.7 7.01,1.9c0.046,-2.288 1.626,-4.184 3.756,-4.728c-3.112,-1.998 -6.801,-3.172 -10.766,-3.172c-11.028,0 -20,8.972 -20,20c0,11.028 8.972,20 20,20c11.028,0 20,-8.972 20,-20c0,-3.965 -1.174,-7.654 -3.172,-10.766z" fill="url(#color-3)"></path></g></g></g></svg>